<?xml version="1.0"?>
<svg xmlns="http://www.w3.org/2000/svg" xmlns:xlink="http://www.w3.org/1999/xlink" version="1.1" id="Capa_1" x="0px" y="0px" width="512px" height="512px" viewBox="0 0 32 32" style="enable-background:new 0 0 32 32;" xml:space="preserve"><g><g>
	<g>
		<path d="M32,24.075l-2.682-2.489l2.49-2.591h-3.814c-0.059-0.136-0.135-0.263-0.212-0.377c0.212-0.206,0.399-0.384,0.458-0.511    c0.335-0.566,0.001-0.989-0.316-1.315c0.053-0.079,0.104-0.156,0.16-0.237c0.047-0.073,0.096-0.145,0.141-0.21    c0.131-0.197,0.243-0.367,0.285-0.483c0.182-0.438,0.057-0.842-0.369-1.195c-0.051-0.044-0.099-0.076-0.149-0.114    c0.122-0.262,0.241-0.498,0.268-0.637c0.126-0.51-0.172-0.819-0.5-1.018c-0.075-0.047-0.149-0.084-0.225-0.122    c0.021-0.092,0.04-0.183,0.062-0.274c0.023-0.084,0.047-0.165,0.068-0.243c0.066-0.232,0.125-0.434,0.13-0.569    c-0.007-0.68-0.5-0.926-0.928-1.064c0.036-0.29,0.075-0.547,0.061-0.687c-0.104-0.647-0.625-0.78-1.075-0.845    c-0.013-0.154-0.022-0.31-0.028-0.447C25.811,8.356,25.801,8.127,25.745,8c-0.198-0.642-0.738-0.717-1.126-0.717    c-0.029,0-0.055,0.003-0.084,0.003c-0.057-0.29-0.102-0.543-0.178-0.663c-0.289-0.598-0.832-0.543-1.28-0.455    c-0.069-0.153-0.136-0.307-0.192-0.444c-0.098-0.24-0.183-0.447-0.265-0.563c-0.187-0.269-0.447-0.405-0.774-0.405    c-0.129,0-0.269,0.021-0.427,0.063c-0.063,0.017-0.118,0.042-0.179,0.063c-0.149-0.251-0.277-0.47-0.379-0.574    c-0.359-0.382-0.788-0.285-1.127-0.137c-0.086,0.037-0.164,0.084-0.242,0.128c-0.111-0.119-0.219-0.242-0.312-0.353    c-0.182-0.212-0.326-0.38-0.447-0.455c-0.389-0.255-0.803-0.237-1.246,0.063c-0.053,0.04-0.096,0.08-0.145,0.121    C17.12,3.483,16.93,3.313,16.8,3.257c-0.468-0.214-0.838-0.023-1.11,0.228c-0.068,0.068-0.126,0.14-0.185,0.209    c-0.134-0.072-0.268-0.148-0.392-0.222c-0.252-0.149-0.451-0.268-0.59-0.293c-0.471-0.132-0.87,0.031-1.158,0.467    C13.327,3.7,13.301,3.749,13.268,3.8c-0.271-0.109-0.509-0.21-0.649-0.213c-0.515-0.064-0.809,0.224-0.974,0.58    c-0.043,0.084-0.074,0.167-0.107,0.249c-0.166-0.025-0.331-0.056-0.486-0.086c-0.239-0.046-0.446-0.085-0.587-0.085h-0.029    c-0.683,0.021-0.878,0.622-0.942,0.82c-0.02,0.062-0.029,0.12-0.043,0.181C9.162,5.235,8.91,5.222,8.769,5.249    C8.252,5.342,8.1,5.756,8.04,6.119C8.024,6.211,8.02,6.301,8.015,6.39C7.863,6.415,7.708,6.438,7.563,6.455    C7.272,6.49,7.042,6.519,6.917,6.586C6.286,6.851,6.26,7.401,6.306,7.85c-0.28,0.078-0.523,0.144-0.635,0.226    C5.107,8.419,5.201,8.95,5.323,9.391C5.264,9.422,5.207,9.455,5.147,9.486L5.061,9.53C4.985,9.572,4.91,9.612,4.839,9.649    c-0.21,0.11-0.393,0.205-0.486,0.289c-0.542,0.433-0.317,1.031-0.243,1.228c0.023,0.06,0.05,0.11,0.075,0.166    c-0.23,0.17-0.438,0.316-0.528,0.422c-0.359,0.39-0.225,0.809-0.043,1.135c0.047,0.08,0.096,0.149,0.144,0.221    c-0.125,0.143-0.254,0.277-0.37,0.397C3.223,13.68,3.08,13.827,3,13.949C2.689,14.55,3.001,15,3.31,15.326    c-0.162,0.23-0.308,0.433-0.37,0.562c-0.21,0.616,0.179,0.979,0.539,1.253c-0.061,0.141-0.128,0.282-0.193,0.412    c-0.131,0.267-0.234,0.477-0.245,0.618c-0.067,0.366,0.037,0.628,0.208,0.823H0.19l2.49,2.591L0,24.075h5.784    c0.193,0.216,0.476,0.286,0.738,0.307c0.09,0.005,0.171,0.002,0.255,0.001c0.045,0.168,0.083,0.338,0.117,0.488    c0.058,0.266,0.104,0.475,0.169,0.604c0.223,0.413,0.618,0.588,1.127,0.536c0.071-0.01,0.134-0.026,0.201-0.041    c0.103,0.268,0.189,0.501,0.271,0.616c0.31,0.41,0.727,0.42,1.086,0.326c0.087-0.026,0.166-0.06,0.247-0.091    c0.055,0.086,0.113,0.174,0.158,0.251c0.192,0.312,0.349,0.56,0.468,0.674c0.188,0.185,0.401,0.285,0.644,0.303    c0.186-0.003,0.382-0.057,0.599-0.163c0.061-0.029,0.11-0.063,0.167-0.094c0.188,0.221,0.355,0.408,0.469,0.489    c0.209,0.15,0.416,0.199,0.606,0.185c0.193-0.031,0.37-0.123,0.528-0.233c0.071-0.05,0.133-0.103,0.197-0.155    c0.138,0.104,0.272,0.212,0.391,0.311c0.2,0.164,0.373,0.305,0.498,0.366c0.143,0.074,0.287,0.112,0.43,0.112    c0.343,0,0.616-0.219,0.792-0.385c0.052-0.05,0.091-0.1,0.137-0.149c0.246,0.146,0.46,0.276,0.598,0.319    c0.5,0.176,0.828-0.128,1.056-0.418c0.053-0.069,0.095-0.139,0.139-0.208c0.166,0.055,0.329,0.114,0.473,0.17    c0.25,0.094,0.449,0.169,0.592,0.187c0.469,0.034,0.822-0.183,1.065-0.651c0.031-0.066,0.051-0.128,0.076-0.193    c0.282,0.062,0.528,0.117,0.671,0.112c0.514-0.035,0.749-0.381,0.868-0.73c0.026-0.091,0.042-0.175,0.06-0.262    c0.096,0.001,0.19,0.003,0.286,0.01c0.136,0.003,0.267,0.006,0.384,0.006c0.211,0,0.346-0.011,0.434-0.029    c0.472-0.093,0.74-0.417,0.798-0.963c0.009-0.067,0.009-0.127,0.012-0.192c0.292-0.038,0.543-0.073,0.675-0.126    c0.494-0.177,0.596-0.588,0.578-0.974c-0.002-0.087-0.012-0.166-0.021-0.247c0.058-0.021,0.115-0.043,0.171-0.063H32V24.075z     M27.604,15.505c0.054-0.26,0.176-0.521,0.301-0.771c0.037,0.027,0.074,0.051,0.109,0.081c0.361,0.302,0.461,0.609,0.312,0.972    c-0.036,0.1-0.144,0.26-0.267,0.444c-0.047,0.068-0.094,0.14-0.139,0.21c-0.048,0.067-0.091,0.137-0.138,0.204    c-0.069-0.07-0.134-0.136-0.183-0.196c0.008-0.167,0.026-0.332,0.026-0.5C27.626,15.799,27.609,15.655,27.604,15.505z     M27.639,18.761c0.051,0.076,0.1,0.154,0.139,0.233H27.42C27.491,18.916,27.562,18.836,27.639,18.761z M26.846,10.825    c0.377,0.128,0.744,0.331,0.75,0.86c-0.005,0.106-0.062,0.306-0.123,0.518c-0.021,0.077-0.046,0.16-0.072,0.263    c-0.017,0.066-0.031,0.14-0.047,0.21c-0.084-0.042-0.166-0.083-0.228-0.125c-0.088-0.294-0.192-0.58-0.3-0.863    C26.798,11.409,26.82,11.109,26.846,10.825z M3.879,18.995h-0.34c-0.222-0.175-0.372-0.41-0.3-0.798    c0.008-0.113,0.114-0.329,0.227-0.557c0.059-0.119,0.119-0.249,0.176-0.379c0.077,0.057,0.149,0.109,0.206,0.161    c0.04,0.32,0.084,0.644,0.149,0.958C3.987,18.58,3.937,18.791,3.879,18.995z M3.855,14.422c-0.11,0.251-0.271,0.504-0.431,0.735    c-0.269-0.292-0.492-0.646-0.252-1.107c0.064-0.097,0.202-0.239,0.36-0.404c0.105-0.11,0.223-0.235,0.337-0.362    c0.05,0.072,0.1,0.145,0.134,0.208C3.939,13.798,3.896,14.11,3.855,14.422z M25.559,8.068c0.045,0.104,0.055,0.338,0.064,0.585    c0.005,0.126,0.016,0.27,0.027,0.41c-0.096-0.014-0.188-0.025-0.262-0.044c-0.177-0.248-0.357-0.493-0.553-0.728    c-0.126-0.236-0.202-0.53-0.261-0.811C24.966,7.471,25.391,7.53,25.559,8.068z M21.471,5.009c0.477-0.127,0.772-0.043,0.986,0.265    c0.068,0.099,0.15,0.295,0.244,0.523c0.052,0.126,0.113,0.269,0.177,0.408c-0.095,0.02-0.187,0.036-0.26,0.041    c-0.249-0.179-0.505-0.344-0.767-0.502c-0.188-0.199-0.355-0.45-0.506-0.691C21.387,5.039,21.426,5.02,21.471,5.009z     M17.602,3.715c0.369-0.25,0.697-0.271,1.023-0.059c0.098,0.061,0.245,0.234,0.402,0.418c0.084,0.1,0.184,0.211,0.285,0.32    c-0.076,0.043-0.15,0.089-0.215,0.118c-0.309-0.092-0.619-0.175-0.937-0.241c-0.231-0.117-0.458-0.293-0.666-0.467    C17.531,3.776,17.564,3.743,17.602,3.715z M13.529,3.759c0.186-0.281,0.418-0.425,0.687-0.425c0.08,0,0.165,0.013,0.262,0.039    c0.113,0.021,0.317,0.142,0.532,0.27c0.108,0.064,0.234,0.134,0.36,0.202c-0.059,0.069-0.116,0.141-0.169,0.19    c-0.315,0.012-0.63,0.031-0.939,0.068c-0.264-0.03-0.542-0.129-0.804-0.232C13.482,3.834,13.502,3.797,13.529,3.759z M9.684,5.127    c0.149-0.461,0.384-0.672,0.781-0.683c0.123,0,0.321,0.037,0.55,0.081c0.134,0.026,0.288,0.054,0.442,0.077    c-0.034,0.085-0.066,0.17-0.102,0.232c-0.288,0.113-0.568,0.238-0.845,0.372c-0.27,0.05-0.572,0.053-0.856,0.045    C9.665,5.21,9.669,5.169,9.684,5.127z M7.002,6.766c0.101-0.053,0.336-0.082,0.585-0.113c0.126-0.016,0.269-0.037,0.41-0.061    C7.993,6.682,7.99,6.774,7.979,6.846C7.736,7.051,7.5,7.262,7.275,7.486C7.049,7.621,6.769,7.714,6.501,7.793    C6.462,7.386,6.5,6.977,7.002,6.766z M4.349,11.211c-0.018-0.04-0.037-0.074-0.053-0.116C4.125,10.639,4.18,10.33,4.48,10.091    C4.56,10.02,4.732,9.93,4.931,9.824c0.072-0.037,0.148-0.077,0.224-0.118l0.084-0.044c0.045-0.023,0.094-0.051,0.14-0.076    c0.028,0.095,0.053,0.184,0.064,0.26C5.285,10.112,5.138,10.38,5,10.657C4.825,10.867,4.578,11.045,4.349,11.211z M8.166,25.813    c-0.052,0.005-0.104,0.008-0.157,0.008c-0.357,0-0.609-0.145-0.769-0.438c-0.053-0.104-0.098-0.313-0.151-0.554    c-0.031-0.138-0.068-0.292-0.107-0.444c0.094-0.003,0.186-0.006,0.261,0.001c0.221,0.22,0.455,0.427,0.689,0.628    c0.156,0.225,0.279,0.504,0.385,0.77C8.267,25.792,8.218,25.805,8.166,25.813z M8.535,22.203v-2.919h0.538v1.12h0.988v-1.12h0.538    v2.919h-0.538v-1.26H9.073v1.26H8.535z M11.776,27.707c-0.189,0.095-0.357,0.141-0.505,0.143c-0.186-0.013-0.357-0.095-0.51-0.244    c-0.104-0.1-0.26-0.348-0.437-0.634c-0.039-0.066-0.092-0.146-0.138-0.219c0.092-0.036,0.182-0.072,0.257-0.092    c0.279,0.138,0.563,0.267,0.852,0.382c0.223,0.152,0.421,0.374,0.603,0.595C11.857,27.66,11.82,27.686,11.776,27.707z     M15.804,28.336c-0.15,0.143-0.382,0.33-0.654,0.33c-0.11,0-0.223-0.03-0.339-0.093c-0.106-0.052-0.271-0.187-0.462-0.343    c-0.108-0.088-0.232-0.186-0.356-0.28c0.075-0.062,0.147-0.123,0.211-0.163c0.307,0.037,0.619,0.06,0.933,0.073    c0.259,0.086,0.521,0.229,0.765,0.368C15.868,28.266,15.84,28.303,15.804,28.336z M19.822,27.641    c-0.19,0.366-0.447,0.544-0.788,0.544c-0.026,0-0.054-0.001-0.079-0.003c-0.115-0.014-0.312-0.088-0.541-0.175    c-0.131-0.05-0.281-0.104-0.43-0.153c0.049-0.079,0.097-0.157,0.143-0.217c0.312-0.065,0.619-0.147,0.923-0.238    c0.267-0.004,0.558,0.045,0.83,0.101C19.859,27.546,19.844,27.594,19.822,27.641z M15.687,26.572c-2.599,0-4.98-0.94-6.829-2.497    h13.656C20.667,25.631,18.286,26.572,15.687,26.572z M12.095,20.558c-0.017-0.036-0.04-0.065-0.068-0.085    c-0.028-0.021-0.062-0.035-0.099-0.042c-0.038-0.007-0.079-0.01-0.121-0.01c-0.094,0-0.168,0.023-0.224,0.072    c-0.056,0.05-0.089,0.132-0.098,0.246h-0.486c0.007-0.137,0.035-0.25,0.086-0.34c0.05-0.09,0.114-0.162,0.191-0.217    c0.078-0.055,0.164-0.094,0.26-0.117c0.096-0.021,0.194-0.034,0.295-0.034c0.089,0,0.179,0.008,0.27,0.022    c0.091,0.015,0.174,0.044,0.25,0.088c0.075,0.044,0.137,0.104,0.184,0.184c0.048,0.08,0.073,0.183,0.073,0.308v1.101    c0,0.095,0.003,0.188,0.013,0.274c0.009,0.087,0.025,0.151,0.048,0.194h-0.492c-0.01-0.031-0.017-0.064-0.023-0.1    c-0.005-0.034-0.009-0.068-0.012-0.104c-0.078,0.096-0.168,0.162-0.274,0.201c-0.105,0.04-0.212,0.062-0.321,0.062    c-0.084,0-0.163-0.014-0.236-0.039c-0.073-0.027-0.137-0.065-0.191-0.117c-0.055-0.052-0.097-0.117-0.128-0.196    c-0.031-0.078-0.046-0.173-0.046-0.281c0-0.12,0.017-0.22,0.051-0.297c0.034-0.077,0.08-0.14,0.137-0.187    c0.057-0.047,0.122-0.081,0.193-0.104c0.071-0.023,0.146-0.041,0.221-0.056c0.075-0.014,0.147-0.024,0.216-0.033    c0.068-0.009,0.129-0.021,0.183-0.035c0.054-0.018,0.097-0.041,0.128-0.072c0.032-0.031,0.047-0.076,0.047-0.137    C12.121,20.645,12.112,20.595,12.095,20.558z M13.482,20.09v2.112h-0.485V20.09H13.482z M12.997,19.763v-0.479h0.485v0.479H12.997    z M14.335,20.483c0.022-0.064,0.053-0.126,0.092-0.182c0.038-0.058,0.083-0.104,0.133-0.145c0.05-0.04,0.104-0.069,0.163-0.092    c0.058-0.021,0.117-0.033,0.176-0.033c0.037,0,0.072,0.008,0.106,0.021v0.54c-0.023-0.005-0.05-0.011-0.083-0.016    c-0.032-0.004-0.063-0.006-0.092-0.006c-0.089,0-0.165,0.019-0.226,0.054c-0.061,0.034-0.111,0.084-0.148,0.146    c-0.037,0.062-0.064,0.134-0.08,0.217c-0.017,0.083-0.024,0.171-0.024,0.265v0.951h-0.487v-2.112h0.462v0.393L14.335,20.483    L14.335,20.483z M17.178,21.49c-0.025-0.03-0.062-0.06-0.107-0.084c-0.047-0.023-0.104-0.047-0.172-0.066    c-0.069-0.021-0.146-0.042-0.233-0.063c-0.071-0.019-0.14-0.041-0.207-0.067c-0.067-0.025-0.127-0.061-0.179-0.103    c-0.053-0.042-0.096-0.096-0.127-0.159c-0.032-0.062-0.049-0.143-0.049-0.234c0-0.135,0.022-0.244,0.067-0.333    s0.104-0.158,0.177-0.208c0.072-0.052,0.155-0.087,0.246-0.107c0.092-0.02,0.186-0.03,0.281-0.03s0.188,0.012,0.277,0.033    c0.091,0.021,0.17,0.059,0.242,0.11c0.07,0.051,0.129,0.121,0.176,0.206c0.047,0.086,0.074,0.193,0.084,0.325h-0.461    c-0.008-0.111-0.043-0.188-0.107-0.228c-0.064-0.04-0.139-0.06-0.227-0.06c-0.026,0-0.057,0.001-0.088,0.006    c-0.033,0.004-0.062,0.013-0.088,0.025c-0.025,0.015-0.049,0.034-0.066,0.061c-0.02,0.024-0.027,0.061-0.027,0.104    c0,0.053,0.016,0.095,0.047,0.127c0.032,0.032,0.074,0.06,0.125,0.079c0.051,0.021,0.109,0.039,0.176,0.057    c0.066,0.016,0.135,0.032,0.203,0.053c0.069,0.02,0.139,0.043,0.207,0.069c0.066,0.026,0.127,0.062,0.178,0.107    c0.054,0.045,0.096,0.103,0.127,0.168c0.033,0.067,0.049,0.149,0.049,0.248c0,0.14-0.023,0.255-0.07,0.351    c-0.047,0.094-0.107,0.169-0.184,0.227c-0.075,0.057-0.161,0.098-0.258,0.122c-0.098,0.025-0.195,0.038-0.297,0.038    c-0.103,0-0.203-0.013-0.301-0.038c-0.098-0.024-0.185-0.065-0.261-0.124c-0.077-0.059-0.14-0.136-0.188-0.231    c-0.049-0.095-0.076-0.212-0.08-0.352h0.461c0,0.062,0.012,0.116,0.033,0.162c0.022,0.045,0.051,0.081,0.084,0.11    c0.034,0.026,0.073,0.05,0.118,0.062c0.044,0.015,0.091,0.021,0.14,0.021c0.033,0,0.07-0.006,0.107-0.015    c0.038-0.01,0.072-0.024,0.104-0.046c0.031-0.02,0.056-0.047,0.076-0.081c0.021-0.034,0.03-0.077,0.03-0.129    C17.215,21.56,17.203,21.522,17.178,21.49z M18.957,20.09v0.388h-0.355v1.048c0,0.099,0.014,0.163,0.041,0.195    c0.027,0.033,0.082,0.05,0.164,0.05c0.055,0,0.105-0.006,0.15-0.017v0.453c-0.041,0.009-0.086,0.015-0.137,0.017    c-0.051,0.003-0.1,0.005-0.147,0.005c-0.075,0-0.146-0.006-0.214-0.019c-0.066-0.014-0.126-0.036-0.177-0.074    c-0.052-0.036-0.093-0.088-0.122-0.153c-0.029-0.064-0.044-0.149-0.044-0.258v-1.247H17.82V20.09h0.296v-0.634h0.485v0.634H18.957    z M19.607,22.073l-0.623-1.982h0.52l0.4,1.446h0.007l0.387-1.446H20.8l-0.737,2.38c-0.054,0.169-0.127,0.291-0.221,0.366    c-0.093,0.073-0.223,0.11-0.39,0.11c-0.052,0-0.101-0.001-0.149-0.005c-0.049-0.005-0.099-0.01-0.148-0.015v-0.479    c0.046,0.005,0.093,0.012,0.141,0.017c0.047,0.006,0.096,0.008,0.143,0.005c0.043-0.005,0.076-0.021,0.105-0.048    c0.027-0.025,0.049-0.058,0.062-0.097c0.014-0.038,0.021-0.079,0.021-0.123C19.628,22.157,19.621,22.113,19.607,22.073z     M20.979,22.203v-2.919h0.485v2.919H20.979z M23.381,25.655c-0.049,0.457-0.258,0.717-0.641,0.791    c-0.098,0.022-0.271,0.025-0.395,0.025c-0.115,0-0.244-0.003-0.375-0.006c-0.082-0.005-0.164-0.006-0.248-0.007    c0.021-0.097,0.037-0.19,0.063-0.265c0.258-0.153,0.513-0.313,0.759-0.486c0.252-0.111,0.553-0.162,0.846-0.193    C23.387,25.561,23.387,25.606,23.381,25.655z M22.369,21.695c0.072,0.086,0.177,0.129,0.314,0.129    c0.098,0,0.183-0.028,0.252-0.088c0.07-0.059,0.114-0.121,0.131-0.187h0.427c-0.068,0.252-0.173,0.433-0.313,0.544    c-0.143,0.111-0.313,0.169-0.514,0.169c-0.141,0-0.266-0.027-0.376-0.083c-0.112-0.055-0.207-0.131-0.284-0.229    c-0.078-0.099-0.138-0.216-0.18-0.353c-0.042-0.136-0.062-0.286-0.062-0.449c0-0.158,0.021-0.305,0.063-0.44    c0.043-0.137,0.104-0.255,0.185-0.354s0.176-0.178,0.286-0.235c0.111-0.057,0.233-0.086,0.368-0.086    c0.15,0,0.281,0.034,0.395,0.104c0.111,0.068,0.203,0.163,0.274,0.28c0.072,0.115,0.124,0.251,0.156,0.399    c0.032,0.149,0.043,0.308,0.034,0.471h-1.276C22.256,21.473,22.295,21.609,22.369,21.695z M5.221,17.7    c-0.096-0.569-0.157-1.151-0.157-1.75c0-5.858,4.766-10.624,10.623-10.624s10.622,4.766,10.622,10.624    c0,0.599-0.062,1.181-0.156,1.75H5.221z" data-original="#000000" class="active-path" data-old_color="#000000" fill="#FB5252"/>
		<path d="M11.945,21.251c-0.036,0.008-0.073,0.015-0.113,0.021c-0.041,0.006-0.079,0.013-0.115,0.021    c-0.038,0.008-0.075,0.019-0.109,0.031c-0.034,0.014-0.064,0.032-0.091,0.057c-0.027,0.021-0.047,0.053-0.063,0.09    c-0.017,0.036-0.024,0.081-0.024,0.133c0,0.055,0.008,0.099,0.024,0.133s0.037,0.062,0.064,0.081    c0.028,0.021,0.06,0.035,0.097,0.044c0.036,0.008,0.074,0.013,0.113,0.013c0.096,0,0.169-0.02,0.222-0.058    c0.053-0.038,0.092-0.084,0.117-0.137c0.025-0.054,0.041-0.107,0.046-0.162c0.006-0.055,0.008-0.099,0.008-0.131V21.17    c-0.02,0.021-0.046,0.038-0.077,0.051C12.014,21.233,11.98,21.242,11.945,21.251z" data-original="#000000" class="active-path" data-old_color="#000000" fill="#FB5252"/>
		<path d="M22.652,20.47c-0.078,0-0.143,0.016-0.193,0.047c-0.052,0.032-0.092,0.071-0.123,0.116    c-0.031,0.047-0.052,0.096-0.064,0.146c-0.014,0.053-0.021,0.1-0.022,0.141h0.791c-0.022-0.147-0.063-0.261-0.123-0.336    C22.859,20.508,22.771,20.47,22.652,20.47z" data-original="#000000" class="active-path" data-old_color="#000000" fill="#FB5252"/>
		<polygon points="14.645,16.819 17.062,16.819 17.432,8.322 14.276,8.322   " data-original="#000000" class="active-path" data-old_color="#000000" fill="#FB5252"/>
		<rect x="15.197" y="6.341" width="1.245" height="1.772" data-original="#000000" class="active-path" data-old_color="#000000" fill="#FB5252"/>
		<polygon points="11.194,16.778 13.168,16.778 13.469,9.841 10.894,9.841   " data-original="#000000" class="active-path" data-old_color="#000000" fill="#FB5252"/>
		<rect x="11.646" y="8.225" width="1.015" height="1.446" data-original="#000000" class="active-path" data-old_color="#000000" fill="#FB5252"/>
		<polygon points="18.38,16.847 20.354,16.847 20.654,9.909 18.08,9.909   " data-original="#000000" class="active-path" data-old_color="#000000" fill="#FB5252"/>
		<rect x="18.832" y="8.293" width="1.016" height="1.447" data-original="#000000" class="active-path" data-old_color="#000000" fill="#FB5252"/>
	</g>
</g></g> </svg>
